<?xml version="1.0" encoding="utf-8"?>
<!-- Generator: Adobe Illustrator 21.0.0, SVG Export Plug-In . SVG Version: 6.00 Build 0)  -->
<svg version="1.1" id="Layer_1" xmlns="http://www.w3.org/2000/svg" xmlns:xlink="http://www.w3.org/1999/xlink" x="0px" y="0px"
	 viewBox="0 0 20 20" enable-background="new 0 0 20 20" xml:space="preserve">
<g>
	<g>
		<path fill="#FDD204" d="M9.7,0.9c0.3-0.5,0.7-0.5,1,0l8.8,16.2c0.3,0.5,0,0.9-0.5,0.9L1,17.9c-0.5,0-0.8-0.4-0.5-0.9L9.7,0.9z"/>
	</g>
	<g>
		<path d="M10,12.5c-0.4,0-0.7-0.3-0.7-0.6V5.9c0-0.4,0.3-0.6,0.7-0.6s0.7,0.3,0.7,0.6v5.9C10.7,12.2,10.4,12.5,10,12.5z M10,6L10,6
			L10,6V5.7V6z"/>
	</g>
	<path d="M10,15.7c-0.6,0-1-0.4-1-1c0-0.6,0.4-1,1-1s1,0.4,1,1C11,15.3,10.6,15.7,10,15.7z"/>
</g>
</svg>
