<?xml version="1.0" encoding="UTF-8"?>
<svg width="26px" height="19px" viewBox="0 0 26 19" version="1.1" xmlns="http://www.w3.org/2000/svg" xmlns:xlink="http://www.w3.org/1999/xlink">
    <!-- Generator: Sketch 63.1 (92452) - https://sketch.com -->
    <title>Artboard</title>
    <desc>Created with Sketch.</desc>
    <g id="Artboard" stroke="none" stroke-width="1" fill="none" fill-rule="evenodd">
        <g id="answer(1)" fill="#010101">
            <path d="M18,0 L2,0 C0.9,0 0,0.9 0,2 L0,13 C0,14.1 0.9,15 2,15 L10.7,15 L16,19 L16,15 L18,15 C19.1,15 20,14.1 20,13 L20,11.4 L20,2 C20,0.9 19.1,0 18,0 Z M19,13 C19,13.6 18.6,14 18,14 L15,14 L15,17 L11,14 L2,14 C1.4,14 1,13.6 1,13 L1,2 C1,1.4 1.4,1 2,1 L18,1 C18.6,1 19,1.4 19,2 L19,13 Z M15.4,8 L4.4,8 C4.2,8 3.9,7.8 3.9,7.5 L3.9,7.5 C3.9,7.2 4.2,7 4.4,7 L15.4,7 C15.7,7 15.9,7.2 15.9,7.5 L15.9,7.5 C15.9,7.8 15.7,8 15.4,8 Z" id="Shape"></path>
            <path d="M15.4,5 L4.4,5 C4.2,5 3.9,4.8 3.9,4.5 L3.9,4.5 C3.9,4.2 4.2,4 4.4,4 L15.4,4 C15.7,4 15.9,4.2 15.9,4.5 L15.9,4.5 C15.9,4.8 15.7,5 15.4,5 Z" id="Path"></path>
            <path d="M15.4,11 L4.4,11 C4.1,11 3.9,10.8 3.9,10.5 L3.9,10.5 C3.9,10.2 4.1,10 4.4,10 L15.4,10 C15.7,10 15.9,10.2 15.9,10.5 L15.9,10.5 C15.9,10.8 15.7,11 15.4,11 Z" id="Path"></path>
        </g>
        <rect id="Rectangle" fill="#DC370C" x="14" y="0" width="12" height="12" rx="6"></rect>
    </g>
</svg>