<?xml version="1.0" encoding="utf-8"?>
<!-- Generator: Adobe Illustrator 22.0.1, SVG Export Plug-In . SVG Version: 6.00 Build 0)  -->
<svg version="1.1" id="Layer_1" xmlns="http://www.w3.org/2000/svg" xmlns:xlink="http://www.w3.org/1999/xlink" x="0px" y="0px"
	 width="20px" height="20px" viewBox="0 0 20 20" enable-background="new 0 0 20 20" xml:space="preserve">
<g>
	<path fill-rule="evenodd" clip-rule="evenodd" fill="#010101" d="M18,1H2C0.9,1,0,1.9,0,3v11c0,1.1,0.9,2,2,2h8.7l5.3,4v-4h2
		c1.1,0,2-0.9,2-2v-1.6V3C20,1.9,19.1,1,18,1z M19,14c0,0.6-0.4,1-1,1h-3v3l-4-3H2c-0.6,0-1-0.4-1-1V3c0-0.6,0.4-1,1-1h16
		c0.6,0,1,0.4,1,1V14z M15.4,9h-11C4.2,9,3.9,8.8,3.9,8.5v0C3.9,8.2,4.2,8,4.4,8h11c0.3,0,0.5,0.2,0.5,0.5v0C15.9,8.8,15.7,9,15.4,9
		z"/>
	<path fill-rule="evenodd" clip-rule="evenodd" fill="#010101" d="M15.4,6h-11C4.2,6,3.9,5.8,3.9,5.5v0C3.9,5.2,4.2,5,4.4,5h11
		c0.3,0,0.5,0.2,0.5,0.5v0C15.9,5.8,15.7,6,15.4,6z"/>
	<path fill-rule="evenodd" clip-rule="evenodd" fill="#010101" d="M15.4,12h-11c-0.3,0-0.5-0.2-0.5-0.5v0c0-0.3,0.2-0.5,0.5-0.5h11
		c0.3,0,0.5,0.2,0.5,0.5v0C15.9,11.8,15.7,12,15.4,12z"/>
</g>
</svg>
