<?xml version="1.0" encoding="utf-8"?>
<!-- Generator: Adobe Illustrator 23.0.2, SVG Export Plug-In . SVG Version: 6.00 Build 0)  -->
<svg version="1.1" id="Layer_1" xmlns="http://www.w3.org/2000/svg" xmlns:xlink="http://www.w3.org/1999/xlink" x="0px" y="0px"
	 viewBox="0 0 16 16" enable-background="new 0 0 16 16" xml:space="preserve">
<path d="M13.7,3.3l-2.5-3.1C11,0.1,10.8,0,10.6,0H2.9C2.4,0,2,0.4,2,0.9v14.2C2,15.6,2.4,16,2.9,16h10.2c0.5,0,0.9-0.4,0.9-0.9V4
	C14,3.8,13.9,3.5,13.7,3.3z M4.9,3h4.3C9.7,3,10,3.3,10,3.8S9.7,4.5,9.2,4.5H4.9c-0.4,0-0.8-0.3-0.8-0.7S4.5,3,4.9,3z M11,13.5H4.9
	c-0.4,0-0.8-0.3-0.8-0.8S4.5,12,4.9,12H11c0.4,0,0.8,0.3,0.8,0.8S11.5,13.5,11,13.5z M11,10.5H4.9c-0.4,0-0.8-0.3-0.8-0.8
	C4.2,9.3,4.5,9,4.9,9H11c0.4,0,0.8,0.3,0.8,0.7C11.8,10.2,11.5,10.5,11,10.5z M11,7.5H4.9c-0.4,0-0.8-0.3-0.8-0.7
	C4.2,6.3,4.5,6,4.9,6H11c0.4,0,0.8,0.3,0.8,0.8C11.8,7.2,11.5,7.5,11,7.5z"/>
</svg>
