<?xml version="1.0" encoding="UTF-8"?>
<svg width="21px" height="21px" viewBox="0 0 21 21" version="1.1" xmlns="http://www.w3.org/2000/svg" xmlns:xlink="http://www.w3.org/1999/xlink">
    <!-- Generator: Sketch 58 (84663) - https://sketch.com -->
    <title>Group 7</title>
    <desc>Created with Sketch.</desc>
    <g id="Editable" stroke="none" stroke-width="1" fill="none" fill-rule="evenodd">
        <g id="editable_spec" transform="translate(-1228.000000, -29.000000)">
            <g id="Group-7" transform="translate(1228.000000, 29.000000)">
                <path d="M20.0836347,10.6954879 C20.0836347,16.2141764 15.6101296,20.6876815 10.0914411,20.6876815 C4.57275254,20.6876815 0.0992474629,16.2141764 0.0992474629,10.6954879 C0.0992474629,5.17779859 4.57275254,0.703294301 10.0914411,0.703294301 C15.6101296,0.703294301 20.0836347,5.17779859 20.0836347,10.6954879 Z" id="Fill-51" fill="#373737"></path>
                <path d="M8.99419828,14.736331 C8.97920999,14.4415613 9.093121,14.1557845 9.30595472,13.9509446 C9.53077908,13.7511007 9.82554879,13.6461827 10.1263138,13.661171 C10.4360718,13.643185 10.7408337,13.748103 10.9756503,13.9509446 C11.188484,14.1557845 11.3013958,14.4415613 11.2874067,14.736331 C11.3003966,15.0320999 11.1864856,15.3188759 10.9756503,15.5257143 C10.7428322,15.7335519 10.4380703,15.8394692 10.1263138,15.8224824 C9.82454957,15.8374707 9.52878064,15.729555 9.30595472,15.5257143 C9.09511944,15.3188759 8.98320687,15.0320999 8.9951975,14.736331 L8.99419828,14.736331 Z" id="Path" fill="#FFFFFF"></path>
                <path d="M9.27697736,12.7269009 C9.26498673,12.6509602 9.25899141,12.5790164 9.25899141,12.509071 L9.25899141,12.2892428 C9.24999844,11.9205308 9.31694614,11.5538173 9.45683685,11.2130835 C9.57874161,10.9253084 9.74760968,10.659516 9.95644653,10.4276971 C10.1562904,10.2098673 10.3801155,10.0150195 10.6229258,9.84715066 C10.8577424,9.68128025 11.0805683,9.51441062 11.2894052,9.34754098 C11.47526,9.1986573 11.6431288,9.02679157 11.7890148,8.83793911 C11.9229102,8.65608119 11.9928556,8.43425449 11.9868603,8.20843091 C11.9938548,7.89167838 11.839975,7.59391101 11.5771803,7.41604996 C11.3033942,7.21820453 10.8777268,7.11928181 10.3031756,7.11928181 C10.0293895,7.11628415 9.75660265,7.15925059 9.49680562,7.24618267 C9.26198907,7.32612022 9.03416706,7.42903981 8.81733646,7.55094457 C8.62448712,7.65886027 8.44063076,7.78176425 8.26576737,7.9186573 C8.10489305,8.04655738 7.96400312,8.15247463 7.84209836,8.23640906 L6.92781265,7.05333333 C7.15663388,6.80552693 7.41543169,6.58669789 7.69821077,6.40184231 C7.98498673,6.21398907 8.29074785,6.05711163 8.61049805,5.93520687 C8.93224668,5.81230289 9.26398751,5.72037471 9.60172365,5.65842311 C9.93146604,5.59846995 10.2662045,5.56749415 10.600943,5.56749415 C11.6291397,5.56749415 12.4285152,5.78232631 12.9990695,6.21199063 C13.5546354,6.61167838 13.8763841,7.26117096 13.8554005,7.94563622 C13.8683903,8.35531616 13.7934489,8.76299766 13.6355722,9.14070258 C13.5036753,9.44046838 13.3188197,9.71425449 13.0889992,9.9470726 C12.8641749,10.1649024 12.6183669,10.3597502 12.354573,10.5296175 C12.1017705,10.6944887 11.8609586,10.8773458 11.6341358,11.074192 C11.4123091,11.2650429 11.2234567,11.4898673 11.074573,11.7406714 C10.9126995,12.0404372 10.8337611,12.3771741 10.8477502,12.7169087 L9.27697736,12.7269009 Z" id="Path" fill="#FFFFFF"></path>
            </g>
        </g>
    </g>
</svg>