<?xml version="1.0" encoding="UTF-8"?>
<svg width="26px" height="24px" viewBox="0 0 26 24" version="1.1" xmlns="http://www.w3.org/2000/svg" xmlns:xlink="http://www.w3.org/1999/xlink">
    <!-- Generator: Sketch 59.1 (86144) - https://sketch.com -->
    <title>Fill 1</title>
    <desc>Created with Sketch.</desc>
    <g id="Editable" stroke="none" stroke-width="1" fill="none" fill-rule="evenodd">
        <g id="editable_spec" transform="translate(-285.000000, -255.000000)" stroke="#3399FF">
            <g id="wizard" transform="translate(276.000000, 246.000000)">
                <path d="M31.568,21.4528775 L31.568,31.9803097 L25.669,31.9803097 L25.669,24.00179 L18.53,24.00179 L18.53,32 L12.631,32 L12.631,21.5808646 L9,21.5808646 C13.533,17.5610848 17.728,13.8415824 22.06,10 C23.976,11.6894299 25.862,13.3512933 27.982,15.2199051 L27.982,12.2890003 L30.377,12.2890003 C30.377,13.4901101 30.449,14.7365077 30.354,15.9701065 C30.275,17.0018795 30.644,17.694979 31.442,18.3299919 C32.591,19.2455921 33.656,20.2635818 35,21.4528775 L31.568,21.4528775 Z" id="Fill-1"></path>
            </g>
        </g>
    </g>
</svg>