<?xml version="1.0" encoding="UTF-8"?>
<svg width="19px" height="21px" viewBox="0 0 19 21" version="1.1" xmlns="http://www.w3.org/2000/svg" xmlns:xlink="http://www.w3.org/1999/xlink">
    <!-- Generator: Sketch 58 (84663) - https://sketch.com -->
    <title>Fill 60</title>
    <desc>Created with Sketch.</desc>
    <g id="Editable" stroke="none" stroke-width="1" fill="none" fill-rule="evenodd">
        <g id="editable_spec" transform="translate(-1194.000000, -29.000000)" fill="#373737">
            <g id="shell" transform="translate(0.000000, 18.000000)">
                <g id="Group-62" transform="translate(1117.164715, 11.476971)">
                    <path d="M88.903644,9.89656831 C90.3135425,8.92932397 91.2408181,7.31858236 91.2408181,5.50499922 C91.2408181,2.64423419 88.903644,0.267091335 86.042879,0.22712256 C83.1021764,0.187153786 80.6840656,2.56429664 80.6840656,5.50499922 C80.6840656,7.31858236 81.6113411,8.92932397 83.0212397,9.89656831 C83.223082,10.0174738 83.182114,10.3392225 82.9403029,10.4201593 C79.5159781,11.6292147 77.0179297,14.8526963 76.8970242,18.7206745 C76.8970242,18.8405808 76.977961,18.9614863 77.0988665,19.0024543 C79.7577892,19.7678564 82.7794286,20.2105105 85.9219735,20.2105105 C89.1054863,20.2105105 92.0861577,19.7678564 94.7460796,19.0024543 C94.8669852,18.9614863 94.9469227,18.8405808 94.9469227,18.7206745 C94.8260172,14.8926651 92.3689368,11.6691835 88.903644,10.4201593 C88.7427697,10.2992537 88.7018017,10.0174738 88.903644,9.89656831" id="Fill-60"></path>
                </g>
            </g>
        </g>
    </g>
</svg>