<?xml version="1.0" encoding="UTF-8"?>
<svg width="21px" height="21px" viewBox="0 0 21 21" version="1.1" xmlns="http://www.w3.org/2000/svg" xmlns:xlink="http://www.w3.org/1999/xlink">
    <!-- Generator: Sketch 58 (84663) - https://sketch.com -->
    <title>Fill 56</title>
    <desc>Created with Sketch.</desc>
    <g id="Editable" stroke="none" stroke-width="1" fill="none" fill-rule="evenodd">
        <g id="editable_spec" transform="translate(-1117.000000, -29.000000)" fill="#373737">
            <path d="M1125.29546,44.6653052 C1121.43848,44.6653052 1118.30093,41.5267572 1118.30093,37.6707697 C1118.30093,33.8147822 1121.43848,30.6762342 1125.29546,30.6762342 C1129.15245,30.6762342 1132.29,33.8147822 1132.29,37.6707697 C1132.29,41.5267572 1129.15245,44.6653052 1125.29546,44.6653052 M1137.14021,48.8620265 L1131.2598,42.9806214 C1132.51782,41.5677252 1133.28922,39.7121749 1133.28922,37.6717689 C1133.28922,33.2562186 1129.71001,29.6780141 1125.29546,29.6780141 C1120.88091,29.6780141 1117.30171,33.2562186 1117.30171,37.6717689 C1117.30171,42.0863201 1120.88091,45.6655238 1125.29546,45.6655238 C1127.30989,45.6655238 1129.14446,44.9141109 1130.55036,43.685071 L1136.43376,49.5684746 C1136.62861,49.7633224 1136.94636,49.7633224 1137.14021,49.5684746 C1137.33506,49.3746261 1137.33506,49.0568743 1137.14021,48.8620265" id="Fill-56"></path>
        </g>
    </g>
</svg>