<?xml version="1.0" encoding="UTF-8"?>
<svg width="20px" height="20px" viewBox="0 0 20 20" version="1.1" xmlns="http://www.w3.org/2000/svg" xmlns:xlink="http://www.w3.org/1999/xlink">
    <!-- Generator: Sketch 59.1 (86144) - https://sketch.com -->
    <title>Asset &amp; Page Icons/Administrator/saml_setup</title>
    <desc>Created with Sketch.</desc>
    <g id="Asset-&amp;-Page-Icons/Administrator/saml_setup" stroke="none" stroke-width="1" fill="none" fill-rule="evenodd">
        <g id="saml_setup" fill-rule="nonzero">
            <path d="M14.2382,14.8859 C12.9612,15.2539 11.5292,15.4669 10.0002,15.4669 C8.4902,15.4669 7.0392,15.2539 5.7612,14.8859 C5.7032,14.8659 5.6652,14.8079 5.6652,14.7499 C5.7232,12.8919 6.9232,11.3439 8.5682,10.7629 C8.6842,10.7249 8.7032,10.5699 8.6062,10.5119 C7.9292,10.0479 7.4842,9.2729 7.4842,8.4029 C7.4842,6.9899 8.6452,5.8479 10.0582,5.8669 C11.4322,5.8859 12.5542,7.0289 12.5542,8.4029 C12.5542,9.2729 12.1092,10.0479 11.4322,10.5119 C11.3352,10.5699 11.3552,10.7059 11.4322,10.7629 C13.0962,11.3639 14.2772,12.9119 14.3352,14.7499 C14.3352,14.8079 14.2962,14.8659 14.2382,14.8859 M15.8002,8.3999 C13.4802,8.3999 11.6002,6.5189 11.6002,4.1999 C11.6002,2.7089 12.3832,1.4069 13.5542,0.6619 C12.4482,0.2409 11.2532,-0.0001 10.0002,-0.0001 C4.4772,-0.0001 0.0002,4.4769 0.0002,9.9999 C0.0002,15.5229 4.4772,19.9999 10.0002,19.9999 C15.5232,19.9999 20.0002,15.5229 20.0002,9.9999 C20.0002,8.7459 19.7592,7.5519 19.3382,6.4459 C18.5922,7.6169 17.2912,8.3999 15.8002,8.3999" id="Shape" fill="#FF580E"></path>
            <path d="M11.4321,10.7634 C11.3551,10.7054 11.3351,10.5704 11.4321,10.5124 C12.1091,10.0474 12.5551,9.2734 12.5551,8.4024 C12.5551,7.0284 11.4321,5.8864 10.0581,5.8674 C8.6451,5.8474 7.4841,6.9894 7.4841,8.4024 C7.4841,9.2734 7.9291,10.0474 8.6061,10.5124 C8.7031,10.5704 8.6841,10.7244 8.5681,10.7634 C6.9231,11.3444 5.7231,12.8924 5.6651,14.7504 C5.6651,14.8084 5.7031,14.8664 5.7621,14.8864 C7.0391,15.2534 8.4911,15.4664 10.0001,15.4664 C11.5291,15.4664 12.9611,15.2534 14.2381,14.8864 C14.2961,14.8664 14.3351,14.8084 14.3351,14.7504 C14.2771,12.9114 13.0971,11.3634 11.4321,10.7634" id="Path" fill="#FFFFFF"></path>
            <path d="M19.9999,4.1999 C19.9999,6.5189 18.1199,8.3999 15.7999,8.3999 C13.4799,8.3999 11.5999,6.5189 11.5999,4.1999 C11.5999,1.8809 13.4799,-0.0001 15.7999,-0.0001 C18.1199,-0.0001 19.9999,1.8809 19.9999,4.1999" id="Path" fill="#2473E4"></path>
            <path d="M14.9999,2.6799 C14.9999,2.1999 15.3199,1.7999 15.7999,1.7999 C16.2799,1.7999 16.5999,2.1199 16.5999,2.6799 L16.5999,3.3999 L14.9999,3.3999 L14.9999,2.6799 Z M17.3999,3.3999 L17.3999,2.8399 C17.3999,1.7999 16.7599,0.9999 15.7999,0.9999 C14.8399,0.9999 14.1999,1.7999 14.1999,2.8399 L14.1999,3.3999 L13.3999,3.3999 L13.3999,6.5999 L18.1999,6.5999 L18.1999,3.3999 L17.3999,3.3999 Z" id="Shape" fill="#ECF0F1"></path>
        </g>
    </g>
</svg>