<?xml version="1.0" encoding="UTF-8"?>
<svg width="173px" height="43px" viewBox="0 0 173 43" version="1.1" xmlns="http://www.w3.org/2000/svg" xmlns:xlink="http://www.w3.org/1999/xlink">
    <!-- Generator: Sketch 58 (84663) - https://sketch.com -->
    <title>logo</title>
    <desc>Created with Sketch.</desc>
    <g id="Editable" stroke="none" stroke-width="1" fill="none" fill-rule="evenodd">
        <g id="editable_spec" transform="translate(-33.000000, -18.000000)">
            <g id="shell" transform="translate(0.000000, 18.000000)">
                <g id="logo" transform="translate(33.325009, 0.198682)">
                    <polygon id="Fill-2" fill="#FF4D00" points="18.9000343 24.4778767 31.5551475 31.5543482 32.0277783 26.1735519 28.5135238 22.4314754 23.3275753 21.5761436"></polygon>
                    <polygon id="Fill-3" fill="#FF7D00" points="21.0361655 2.30926389e-14 31.5549477 31.5543482 42.0727307 21.0365652"></polygon>
                    <polygon id="Fill-4" fill="#001AFF" points="19.3440874 16.7134426 18.900434 24.4783763 35.0648056 21.0370648"></polygon>
                    <polygon id="Fill-5" fill="#E23400" points="-4.97379915e-14 21.0372646 -4.97379915e-14 21.0372646 11.2322248 32.2694895 13.3235909 29.4676784 12.9478845 26.1013084 7.79291179 22.7569212"></polygon>
                    <polygon id="Fill-6" fill="#FF4D00" points="19.8986542 1.1397096 0.000199843872 21.0371647 12.9480843 26.1012084"></polygon>
                    <polygon id="Fill-7" fill="#FF7D00" points="12.9477845 26.1016081 11.2321249 32.2697892 21.0364653 42.0731304 30.2482685 32.8623263"></polygon>
                    <polygon id="Fill-8" fill="#1A1A1A" points="56.7222857 27.0354785 54.7548228 27.0354785 54.7548228 11.1159157 56.7222857 9.96881187"></polygon>
                    <polygon id="Fill-9" fill="#1A1A1A" points="144.78039 12.8561561 142.75797 12.8561561 142.75797 11.2923778 142.75797 10.7448056 144.78039 10.7448056"></polygon>
                    <path d="M65.5154161,14.764765 C63.9386479,14.764765 62.6866261,15.434242 61.7883279,16.7572084 L61.7883279,15.0145699 L59.8648306,15.0145699 L59.8648306,27.0351788 L61.7883279,27.0351788 L61.7883279,20.171541 C61.7883279,18.0731803 63.1242842,16.6073255 65.03679,16.6073255 C66.9073286,16.6073255 68.0244559,17.8883247 68.0244559,20.0346479 L68.0244559,27.0351788 L69.9479532,27.0351788 L69.9479532,19.6019859 C69.9479532,18.1760999 69.5452678,16.9690429 68.7818642,16.1127119 C67.997477,15.2304012 66.8673599,14.764765 65.5154161,14.764765" id="Fill-10" fill="#1A1A1A"></path>
                    <path d="M89.3023326,21.0362654 L89.3023326,21.0822295 C89.3023326,23.5952662 87.5786792,25.4897861 85.2924653,25.4897861 C83.0312319,25.4897861 81.2606151,23.5333146 81.2606151,21.0362654 L81.2606151,20.9913005 C81.2606151,18.4662732 82.9752756,16.5607619 85.2484996,16.5607619 C87.5217237,16.5607619 89.3023326,18.5272256 89.3023326,21.0362654 M85.2924653,14.7651647 C83.6397564,14.7651647 82.11195,15.4276472 80.9908259,16.6317065 C79.8956815,17.8077877 79.2931522,19.371566 79.2931522,21.0362654 L79.2931522,21.0822295 C79.2931522,24.573502 81.9091085,27.3083653 85.2484996,27.3083653 C86.9022077,27.3083653 88.4340109,26.6458829 89.5601311,25.4418236 C90.6622701,24.2647432 91.2697955,22.7009649 91.2697955,21.0362654 L91.2697955,20.9913005 C91.2697955,17.5000281 88.643847,14.7651647 85.2924653,14.7651647" id="Fill-12" fill="#1A1A1A"></path>
                    <path d="M95.534064,17.6561062 L95.534064,15.0141702 L93.6105667,15.0141702 L93.6105667,27.0357783 L95.534064,27.0357783 L95.534064,22.2205402 C95.534064,19.0180422 97.2357346,16.8697205 99.870676,16.8697205 L100.125477,16.8697205 L100.125477,14.8153255 L100.00657,14.8093302 C98.1430258,14.7303919 96.5033068,15.7845683 95.534064,17.6561062" id="Fill-14" fill="#1A1A1A"></path>
                    <path d="M114.992962,14.764765 C113.329262,14.764765 112.036272,15.4901983 111.048044,16.9810336 C110.309621,15.5491522 109.029621,14.764765 107.420877,14.764765 C105.614289,14.764765 104.592087,15.7430008 103.911619,16.7102451 L103.911619,15.0145699 L101.987123,15.0145699 L101.987123,27.0351788 L103.911619,27.0351788 L103.911619,20.194523 C103.911619,18.1161468 105.176631,16.6073255 106.920269,16.6073255 C108.654913,16.6073255 109.690105,17.8703388 109.690105,19.9896831 L109.690105,27.0351788 L111.613602,27.0351788 L111.613602,20.1255769 C111.613602,19.0534145 111.917365,18.1521187 112.489917,17.5166151 C113.020503,16.9300734 113.761923,16.6073255 114.579285,16.6073255 C116.353899,16.6073255 117.371104,17.8563497 117.371104,20.0346479 L117.371104,27.0351788 L119.294601,27.0351788 L119.294601,19.624968 C119.294601,16.6263107 117.646888,14.764765 114.992962,14.764765" id="Fill-16" fill="#1A1A1A"></path>
                    <path d="M140.423294,16.8120656 L140.423294,15.0144699 L136.810117,15.0144699 L136.810117,10.8307385 L134.88662,11.9528618 L134.88662,15.0144699 L132.792256,15.0144699 L132.792256,16.8120656 L134.88662,16.8120656 L134.88662,23.7916128 C134.88662,26.7922685 136.955004,27.240918 138.188041,27.240918 C138.960437,27.240918 139.62192,27.0760468 140.270414,26.7253208 L140.335363,26.6893489 L140.335363,24.9107385 L140.155504,25.0016674 C139.595941,25.2844465 139.139297,25.3983575 138.579735,25.3983575 C137.388665,25.3983575 136.810117,24.7988259 136.810117,23.56479 L136.810117,16.8120656 L140.423294,16.8120656 Z" id="Fill-18" fill="#1A1A1A"></path>
                    <path d="M156.397514,23.7783232 C155.372315,24.9294239 154.277171,25.4899859 153.052128,25.4899859 C150.803884,25.4899859 149.042261,23.5335144 149.042261,21.0364653 L149.042261,20.9915004 C149.042261,18.5074411 150.755922,16.5609617 152.943213,16.5609617 C154.475016,16.5609617 155.446258,17.3953099 156.267616,18.297605 L156.360543,18.3975269 L157.636546,16.9836315 L157.561605,16.9006963 C156.667304,15.9064731 155.336343,14.7643653 152.965196,14.7643653 C151.35945,14.7643653 149.865617,15.427847 148.758482,16.6319063 C147.67333,17.8129836 147.074798,19.3777611 147.074798,21.0364653 L147.074798,21.0824294 C147.074798,22.7301421 147.67333,24.2839282 148.758482,25.4570117 C149.865617,26.6510788 151.35945,27.3085652 152.965196,27.3085652 C155.356328,27.3085652 156.725258,26.068534 157.650536,24.9883778 L157.726476,24.9004465 L156.484447,23.6803997 L156.397514,23.7783232 Z" id="Fill-20" fill="#1A1A1A"></path>
                    <path d="M129.686283,21.2461015 L129.686283,22.5850554 C129.686283,24.3316909 128.121505,25.648662 126.046126,25.648662 C124.187578,25.648662 123.34124,24.4975613 123.34124,23.4283966 L123.34124,23.3824325 C123.34124,22.4071944 123.889811,21.2461015 126.50277,21.2461015 L129.686283,21.2461015 Z M126.611685,14.7651647 C124.790108,14.7651647 123.49412,15.2657736 122.467922,15.7563903 L122.367001,15.8043528 L122.950545,17.4750476 L123.075447,17.4140952 C123.998726,16.9714411 125.045908,16.5617611 126.43782,16.5617611 C128.505205,16.5617611 129.686283,17.5090211 129.686283,19.6993099 L126.328906,19.6993099 C123.194354,19.6993099 121.39576,21.066242 121.39576,23.4503794 L121.39576,23.4963435 C121.39576,25.9843997 123.57106,27.2863825 125.719382,27.2863825 C127.691841,27.2863825 128.952856,26.3700984 129.686283,25.4947822 L129.685283,27.0355785 L131.522848,27.0355785 L131.522848,19.7162966 C131.522848,18.2024793 131.12316,16.925477 130.335775,16.101121 C129.488437,15.2138142 128.235416,14.7651647 126.611685,14.7651647 L126.611685,14.7651647 Z" id="Fill-22" fill="#1A1A1A"></path>
                    <path d="M75.3874036,13.894345 C75.3874036,12.1646963 75.8320562,11.516203 77.1979891,11.516203 C77.7245777,11.516203 78.1482467,11.6151257 78.7927432,11.8069758 L78.9126495,11.8429477 L78.9126495,10.0623388 L78.8726807,10.0463513 C78.300128,9.83151913 77.7515566,9.74358782 76.9801593,9.74358782 C75.935975,9.74358782 75.0696518,10.0713318 74.4771148,10.691847 C73.8136331,11.3853052 73.4639063,12.4604653 73.4639063,13.8034161 L73.4639063,15.0144699 L71.3695425,15.0144699 L71.3695425,16.8120656 L73.4639063,16.8120656 L73.4639063,27.0350788 L75.3874036,27.0350788 L75.3874036,16.8120656 L79.0005808,16.8120656 L79.0005808,15.0144699 L75.3874036,15.0144699 L75.3874036,13.894345 Z" id="Fill-24" fill="#1A1A1A"></path>
                    <polygon id="Fill-26" fill="#1A1A1A" points="144.730329 27.0354785 142.806832 27.0354785 142.806832 16.2938704 142.806832 15.0148696 144.730329 15.0148696"></polygon>
                    <path d="M167.203173,21.2461015 L167.203173,22.5860546 C167.203173,24.3336893 165.638395,25.6506604 163.562017,25.6506604 C161.703469,25.6506604 160.85713,24.4995597 160.85713,23.4293958 L160.85713,23.3834317 C160.85713,22.4081936 161.405702,21.2461015 164.01966,21.2461015 L167.203173,21.2461015 Z M164.128575,14.7651647 C162.305998,14.7651647 161.010011,15.2657736 159.983813,15.7563903 L159.882891,15.8043528 L160.466436,17.4750476 L160.591338,17.4140952 C161.514617,16.9714411 162.561799,16.5617611 163.953711,16.5617611 C166.021096,16.5617611 167.203173,17.5090211 167.203173,19.7003091 L163.845795,19.7003091 C160.710245,19.7003091 158.91165,21.0672412 158.91165,23.4513786 L158.91165,23.4973427 C158.91165,25.9853989 161.086951,27.288381 163.236272,27.288381 C165.208731,27.288381 166.469746,26.3710976 167.203173,25.4967806 L167.202173,27.0375769 L169.039738,27.0375769 L169.039738,19.7172959 C169.039738,18.2024793 168.64005,16.9264762 167.852665,16.101121 C167.004328,15.2138142 165.752306,14.7651647 164.128575,14.7651647 L164.128575,14.7651647 Z" id="Fill-28" fill="#1A1A1A"></path>
                    <polygon id="Fill-30" fill="#1A1A1A" points="170.18874 15.2419922 169.747085 15.2419922 169.747085 15.0141702 170.877202 15.0141702 170.877202 15.2419922 170.435547 15.2419922 170.435547 16.407082 170.18874 16.407082"></polygon>
                    <polygon id="Fill-32" fill="#1A1A1A" points="171.1354 15.0145699 171.396197 15.0145699 171.819866 15.6730554 172.243535 15.0145699 172.503332 15.0145699 172.503332 16.4074817 172.258523 16.4074817 172.258523 15.4092615 171.819866 16.0647494 171.811872 16.0647494 171.376212 15.4122592 171.376212 16.4074817 171.1354 16.4074817"></polygon>
                </g>
            </g>
        </g>
    </g>
</svg>