<svg id="Layer_1" data-name="Layer 1" xmlns="http://www.w3.org/2000/svg" viewBox="0 0 150 100">
  <title>error-not-allowed</title>
  <g id="Layer_1-2" data-name="Layer 1">
    <path d="M138.52,51.77a42.86,42.86,0,0,0,1.5-9.63c0-23.7-19.5-42.22-42.75-42.22-16.5,0-30.75,9.63-38.25,23a24.23,24.23,0,0,0-10.5-2.22,27.06,27.06,0,0,0-27,25.92C9.52,51.77.52,62.14.52,74c0,27.4,19.5,25.92,42.75,25.92h64.5c23.25,0,42.75.74,42.75-25.92C150.52,65.1,146,57.69,138.52,51.77Z" transform="translate(-0.52 0.08)" fill="#85c2ff"/>
  </g>
  <g id="Layer_1-3" data-name="Layer 1">
    <g opacity="0.2">
      <path d="M83.1,29.35A30.61,30.61,0,1,0,113.71,60,30.61,30.61,0,0,0,83.1,29.35ZM105.36,60a22.11,22.11,0,0,1-3.85,12.5L70.6,41.55A22.25,22.25,0,0,1,105.36,60ZM60.84,60a22.12,22.12,0,0,1,3.86-12.5l30.91,30.9A22.25,22.25,0,0,1,60.84,60Z" transform="translate(-0.52 0.08)" fill="#231f20"/>
    </g>
    <path d="M83.1,34.92A22.26,22.26,0,1,1,60.84,57.18,22.28,22.28,0,0,1,83.1,34.92m0-8.35a30.61,30.61,0,1,0,30.61,30.61A30.61,30.61,0,0,0,83.1,26.57Z" transform="translate(-0.52 0.08)" fill="#ec1c24"/>
    <rect x="78.93" y="29.63" width="8.35" height="55.09" transform="translate(-16.61 75.58) rotate(-45)" fill="#ec1c24"/>
  </g>
</svg>
