<?xml version="1.0" encoding="UTF-8"?>
<svg width="20px" height="20px" viewBox="0 0 20 20" version="1.1" xmlns="http://www.w3.org/2000/svg" xmlns:xlink="http://www.w3.org/1999/xlink">
    <!-- Generator: Sketch 55.1 (78136) - https://sketchapp.com -->
    <title>Rectangle</title>
    <desc>Created with Sketch.</desc>
    <g id="Page-1" stroke="none" stroke-width="1" fill="none" fill-rule="evenodd">
        <g id="Rectangle" fill="#0080FF" fill-rule="nonzero">
            <path d="M18,0 C19.1,0 20,0.9 20,2 L20,18 C20,19.1 19.1,20 18,20 L2,20 C0.9,20 0,19.1 0,18 L0,2 C0,0.9 0.9,0 2,0 L18,0 Z M2,1 C1.44771525,1 1,1.44771525 1,2 L1,18 C1,18.5522847 1.44771525,19 2,19 L18,19 C18.5522847,19 19,18.5522847 19,18 L19,2 C19,1.44771525 18.5522847,1 18,1 L2,1 Z" id="Combined-Shape"></path>
        </g>
    </g>
</svg>