<?xml version="1.0" encoding="utf-8"?>
<!-- Generator: Adobe Illustrator 22.0.1, SVG Export Plug-In . SVG Version: 6.00 Build 0)  -->
<svg version="1.1" xmlns="http://www.w3.org/2000/svg" xmlns:xlink="http://www.w3.org/1999/xlink" x="0px" y="0px"
	 viewBox="0 0 20 20" enable-background="new 0 0 20 20" xml:space="preserve">
<g id="Layer_4">
</g>
<g id="Layer_1">
	<path d="M18.3,8.1h-6.5V1.7C11.7,0.8,11,0,10,0S8.3,0.8,8.3,1.7v6.4H1.7C0.8,8.1,0,8.9,0,9.9s0.8,1.7,1.7,1.7h6.5v6.6
		c0,1,0.8,1.7,1.7,1.7s1.7-0.8,1.7-1.7v-6.6h6.5c1,0,1.7-0.8,1.7-1.7S19.2,8.1,18.3,8.1z M18.3,10.8h-7.4v7.4c0,0.5-0.4,0.9-0.9,0.9
		s-0.9-0.4-0.9-0.9v-7.4H1.7c-0.5,0-0.9-0.4-0.9-0.9S1.2,9,1.7,9h7.4V1.6c0-0.5,0.4-0.9,0.9-0.9s0.9,0.4,0.9,0.9V9h7.4
		c0.5,0,0.9,0.4,0.9,0.9S18.8,10.8,18.3,10.8z"/>
</g>
<g id="Isolation_Mode">
</g>
<g id="Layer_3">
</g>
</svg>
