<?xml version="1.0" encoding="utf-8"?>
<!-- Generator: Adobe Illustrator 22.0.1, SVG Export Plug-In . SVG Version: 6.00 Build 0)  -->
<svg version="1.1" xmlns="http://www.w3.org/2000/svg" xmlns:xlink="http://www.w3.org/1999/xlink" x="0px" y="0px"
	 viewBox="0 0 20 20" enable-background="new 0 0 20 20" xml:space="preserve">
<g id="Layer_4">
</g>
<g id="Layer_1">
	<path d="M8.8,20c-0.5,0-0.8-0.3-0.8-0.6v-2.6c0-0.4,0.3-0.6,0.8-0.6c0.5,0,0.6,0.3,0.8,0.6v2.6C9.6,19.8,9.3,20,8.8,20z M8.8,14.1
		c-0.5,0-0.8-0.3-0.8-0.6v-0.9c0-3.8,2-4.6,2.8-5.1c1-0.5,3-1.8,2.9-3.5c0-2-1.6-2.6-3.8-2.6c-3.5,0-3.6,1.1-3.6,2.1
		c0,0.4-0.3,0.6-0.8,0.6c-0.4,0-0.6-0.3-0.6-0.6c0-1.9,0.8-3.5,5-3.5c3,0,5.3,1.4,5.1,4c0,3.3-3.8,4.8-4.3,5.1
		c-0.5,0.4-1.3,1.1-1.3,3.5v0.8C9.6,13.9,9.3,14,8.8,14.1z"/>
</g>
<g id="Isolation_Mode">
</g>
<g id="Layer_3">
</g>
</svg>
