<svg id="Layer_1" data-name="Layer 1" xmlns="http://www.w3.org/2000/svg" viewBox="0 0 20 20">
  <title>pages</title>
  <g>
    <path d="M9.6.1.29,4.94a.59.59,0,0,0,0,1L9.6,10.81a.87.87,0,0,0,.8,0L19.71,6a.59.59,0,0,0,0-1L10.36.1A.79.79,0,0,0,9.6.1Z" transform="translate(0 0)" fill="#add6ff"/>
    <path d="M19.67,9.45l-1.74-.9a.49.49,0,0,0-.34,0L10.91,12a1.83,1.83,0,0,1-.93.21A2.31,2.31,0,0,1,9,12L2.37,8.55a.49.49,0,0,0-.34,0l-1.74.9a.59.59,0,0,0,0,1L9.6,15.31a.87.87,0,0,0,.8,0l9.31-4.84A.62.62,0,0,0,19.67,9.45Z" transform="translate(0 0)" fill="#67b7f9"/>
    <path d="M19.67,14l-1.74-.89a.4.4,0,0,0-.34,0l-6.68,3.48a1.83,1.83,0,0,1-.93.21A2.31,2.31,0,0,1,9,16.63L2.37,13.15a.4.4,0,0,0-.34,0L.29,14a.59.59,0,0,0,0,1L9.6,19.9a.87.87,0,0,0,.8,0l9.31-4.84A.62.62,0,0,0,19.67,14Z" transform="translate(0 0)" fill="#39f"/>
  </g>
</svg>
