<svg height="20" viewBox="0 0 20 20" width="20" xmlns="http://www.w3.org/2000/svg"><g fill="none" fill-rule="evenodd" transform="translate(0 1)"><path d="m2.16 13.0895h1.822v-2.16h-1.822z" fill="#bbb"/><g transform="translate(0 .7015)"><path d="m1.1596 8.0482h-.16c-.549 0-1-.45-1-1v-5.48c0-.55.451-1 1-1h.16c.55 0 1 .45 1 1v5.48c0 .55-.45 1-1 1" fill="#929292" transform="translate(0 7)"/><path d="m16.019 2.5682h-.198c-.251 0-.476.103-.651.26v-1.231c0-.539-.441-.981-.981-.981h-11.146c-.54 0-.981.442-.981.981v.971h-.099c-.54 0-.981.442-.981.981v5.518c0 .54.441.981.981.981h.284c.41 1.132 1.488 1.952 2.758 1.952h9.184c.54 0 .981-.442.981-.981v-1.231c.175.157.4.26.651.26h.198c.54 0 .981-.441.981-.981v-5.518c0-.539-.441-.981-.981-.981" fill="#70be44" transform="translate(3 5)"/><path d="m13.08 12.2195v-1.121h-.897c-.056-.279-.168-.561-.336-.784l.645-.645-.757-.757-.645.645c-.252-.168-.532-.28-.812-.364v-.896h-1.121v.896c-.28.056-.56.196-.812.336l-.617-.617-.785.757.645.645c-.14.223-.252.505-.336.784h-.897v1.121h.897c.056.28.168.561.336.812l-.645.645.757.785.645-.645c.252.14.504.253.784.337v.868h1.121v-.896c.28-.056.56-.169.785-.337l.644.645.757-.785-.645-.644c.168-.253.281-.533.336-.813h.953zm-3.362.28c-.477 0-.841-.363-.841-.84s.364-.84.841-.84c.476 0 .84.363.84.84s-.364.84-.84.84z" fill="#fff"/><path d="m17.2841 9.9964v-.534h-.561c-.053-.24-.133-.48-.266-.666l.4-.401-.374-.374-.4.401c-.187-.134-.427-.24-.667-.267v-.56h-.534v.56c-.24.053-.48.133-.667.267l-.4-.401-.374.374.401.401c-.134.186-.24.426-.267.666h-.561v.534h.561c.053.24.133.48.267.667l-.401.4.374.374.4-.4c.187.133.427.24.667.267v.56h.534v-.56c.24-.054.48-.134.667-.267l.4.4.374-.374-.4-.4c.133-.187.24-.427.266-.667zm-2.135.267c-.293 0-.533-.24-.533-.534s.24-.533.533-.533c.294 0 .533.239.533.533s-.239.534-.533.534z" fill="#fff"/><path d="m15.1513.2986h-7.815c-.539 0-.981.441-.981.981v.647c0 .54.442.981.981.981h2.018v1.684h3.779v-1.684h2.018c.54 0 .981-.441.981-.981v-.647c0-.54-.441-.981-.981-.981" fill="#929292"/></g></g></svg>