<?xml version="1.0" encoding="utf-8"?>
<!-- Generator: Adobe Illustrator 22.0.1, SVG Export Plug-In . SVG Version: 6.00 Build 0)  -->
<svg version="1.1" id="Layer_1" xmlns="http://www.w3.org/2000/svg" xmlns:xlink="http://www.w3.org/1999/xlink" x="0px" y="0px"
	 viewBox="0 0 20 20" enable-background="new 0 0 20 20" xml:space="preserve">
<path fill="#EA1F27" d="M13.7,0H6.3C6,0,5.8,0.1,5.6,0.3L0.3,5.6C0.1,5.8,0,6,0,6.3v7.5c0,0.3,0.1,0.5,0.3,0.7l5.3,5.3
	C5.8,19.9,6,20,6.3,20h7.5c0.3,0,0.5-0.1,0.7-0.3l5.3-5.3c0.2-0.2,0.3-0.4,0.3-0.7V6.3c0-0.3-0.1-0.5-0.3-0.7l-5.3-5.3
	C14.2,0.1,14,0,13.7,0z"/>
<path fill="#FFFFFF" d="M13,14H7c-0.6,0-1-0.4-1-1V7c0-0.6,0.4-1,1-1h6c0.6,0,1,0.4,1,1v6C14,13.6,13.6,14,13,14z"/>
</svg>
